<?xml version="1.0" encoding="UTF-8" standalone="no"?>
<!-- Created with Inkscape (http://www.inkscape.org/) -->

<svg
   xmlns:dc="http://purl.org/dc/elements/1.1/"
   xmlns:cc="http://creativecommons.org/ns#"
   xmlns:rdf="http://www.w3.org/1999/02/22-rdf-syntax-ns#"
   xmlns:svg="http://www.w3.org/2000/svg"
   xmlns="http://www.w3.org/2000/svg"
   xmlns:sodipodi="http://sodipodi.sourceforge.net/DTD/sodipodi-0.dtd"
   xmlns:inkscape="http://www.inkscape.org/namespaces/inkscape"
   width="42.856979mm"
   height="29.999889mm"
   viewBox="0 0 42.856979 29.999889"
   version="1.1"
   id="svg855"
   inkscape:version="0.92.3 (2405546, 2018-03-11)"
   sodipodi:docname="youtube.svg">
  <defs
     id="defs849" />
  <sodipodi:namedview
     id="base"
     pagecolor="#ffffff"
     bordercolor="#666666"
     borderopacity="1.0"
     inkscape:pageopacity="0.0"
     inkscape:pageshadow="2"
     inkscape:zoom="0.35"
     inkscape:cx="835.27528"
     inkscape:cy="-794.73587"
     inkscape:document-units="mm"
     inkscape:current-layer="svg855"
     showgrid="false"
     fit-margin-top="0"
     fit-margin-left="0"
     fit-margin-right="0"
     fit-margin-bottom="0"
     inkscape:window-width="1920"
     inkscape:window-height="1025"
     inkscape:window-x="1920"
     inkscape:window-y="27"
     inkscape:window-maximized="1" />
  <metadata
     id="metadata852">
    <rdf:RDF>
      <cc:Work
         rdf:about="">
        <dc:format>image/svg+xml</dc:format>
        <dc:type
           rdf:resource="http://purl.org/dc/dcmitype/StillImage" />
        <dc:title></dc:title>
      </cc:Work>
    </rdf:RDF>
  </metadata>
  <path
     d="M 17.14279,21.428494 V 8.571398 l 11.13455,6.428546 z M 41.96126,4.683952 C 41.46792,2.841515 40.01684,1.389062 38.17166,0.895725 34.82991,0 21.42849,0 21.42849,0 21.42849,0 8.02569,0 4.68395,0.895725 2.84013,1.389062 1.38768,2.841515 0.89572,4.683952 0,8.027073 0,14.999944 0,14.999944 c 0,0 0,6.972875 0.89572,10.315995 0.49196,1.843813 1.94441,3.296267 3.78823,3.788225 3.34174,0.895726 16.74454,0.895726 16.74454,0.895726 0,0 13.40142,0 16.74317,-0.895726 1.84518,-0.491958 3.29626,-1.944412 3.7896,-3.788225 0.89572,-3.34312 0.89572,-10.315995 0.89572,-10.315995 0,0 0,-6.972871 -0.89572,-10.315992"
     id="path2"
     inkscape:connector-curvature="0" />
</svg>
